<svg width="378" height="412" viewBox="0 0 378 412" fill="none" xmlns="http://www.w3.org/2000/svg">
<g id="main-tetris">
<path id="Vector" d="M74.2942 283.568H33.6982V324.88H74.2942V283.568Z" fill="#FFC20D"/>
<path id="Vector_2" d="M74.2942 337.643H33.6982V378.955H74.2942V337.643Z" fill="#B169BF"/>
<path id="Vector_3" d="M242.984 337.643H202.388V378.955H242.984V337.643Z" fill="#D14D7B"/>
<g id="Group">
<path id="Vector_4" d="M293.591 337.643H252.995V378.955H293.591V337.643Z" fill="#60A333"/>
<path id="Vector_5" d="M352.634 337.643H312.038V378.955H352.634V337.643Z" fill="#60A333"/>
</g>
<path id="Vector_6" d="M47.3006 412H6.81443C3.08765 412 0.0670013 408.925 0.0670013 405.134V363.934C0.0670013 360.141 3.08844 357.067 6.81443 357.067H47.3006C51.0273 357.067 54.048 360.142 54.048 363.934V405.134C54.048 408.925 51.0273 412 47.3006 412Z" fill="#B169BF"/>
<path id="Vector_7" d="M47.3006 398.266H13.5618V363.933C13.5618 360.14 16.5833 357.066 20.3093 357.066H6.81443C3.08765 357.066 0.0670013 360.141 0.0670013 363.933V391.4V405.134C0.0670013 408.926 3.08844 412 6.81443 412H20.3101H47.3006C51.0273 412 54.048 408.925 54.048 405.134V391.4C54.048 395.192 51.0273 398.266 47.3006 398.266Z" fill="#844A8F"/>
<path id="Vector_8" d="M101.282 412H60.7962C57.0694 412 54.0488 408.925 54.0488 405.134V363.934C54.0488 360.141 57.0702 357.067 60.7962 357.067H101.282C105.009 357.067 108.03 360.142 108.03 363.934V405.134C108.03 408.925 105.008 412 101.282 412Z" fill="#B169BF"/>
<path id="Vector_9" d="M101.282 398.266H67.5436V363.933C67.5436 360.14 70.5651 357.066 74.291 357.066H60.7962C57.0694 357.066 54.0488 360.141 54.0488 363.933V391.4V405.134C54.0488 408.926 57.0702 412 60.7962 412H74.2918H101.282C105.009 412 108.03 408.925 108.03 405.134V391.4C108.03 395.192 105.008 398.266 101.282 398.266Z" fill="#844A8F"/>
<path id="Vector_10" d="M155.263 412H114.777C111.05 412 108.03 408.925 108.03 405.134V363.934C108.03 360.141 111.051 357.067 114.777 357.067H155.263C158.99 357.067 162.011 360.142 162.011 363.934V405.134C162.011 408.925 158.99 412 155.263 412Z" fill="#B169BF"/>
<path id="Vector_11" d="M155.263 398.266H121.525V363.933C121.525 360.14 124.546 357.066 128.272 357.066H114.776C111.05 357.066 108.029 360.141 108.029 363.933V391.4V405.134C108.029 408.926 111.05 412 114.776 412H128.273H155.263C158.99 412 162.011 408.925 162.011 405.134V391.4C162.011 395.192 158.99 398.266 155.263 398.266Z" fill="#844A8F"/>
<path id="Vector_12" d="M209.245 412H168.759C165.032 412 162.012 408.925 162.012 405.134V363.934C162.012 360.141 165.033 357.067 168.759 357.067H209.245C212.972 357.067 215.992 360.142 215.992 363.934V405.134C215.992 408.925 212.972 412 209.245 412Z" fill="#B169BF"/>
<path id="Vector_13" d="M209.245 398.266H175.506V363.933C175.506 360.14 178.528 357.066 182.254 357.066H168.759C165.032 357.066 162.012 360.141 162.012 363.933V391.4V405.134C162.012 408.926 165.033 412 168.759 412H182.255H209.245C212.972 412 215.992 408.925 215.992 405.134V391.4C215.992 395.192 212.972 398.266 209.245 398.266Z" fill="#844A8F"/>
<path id="Vector_14" d="M263.227 412H222.741C219.014 412 215.993 408.925 215.993 405.134V363.934C215.993 360.141 219.015 357.067 222.741 357.067H263.227C266.954 357.067 269.974 360.142 269.974 363.934V405.134C269.974 408.925 266.953 412 263.227 412Z" fill="#FD5E95"/>
<path id="Vector_15" d="M263.227 398.266H229.488V363.933C229.488 360.14 232.51 357.066 236.236 357.066H222.74C219.013 357.066 215.992 360.141 215.992 363.933V391.4V405.134C215.992 408.926 219.014 412 222.74 412H236.236H263.226C266.953 412 269.973 408.925 269.973 405.134V391.4C269.974 395.192 266.953 398.266 263.227 398.266Z" fill="#D14D7B"/>
<path id="Vector_16" d="M263.227 357.066H222.741C219.014 357.066 215.993 353.992 215.993 350.2V309C215.993 305.208 219.015 302.134 222.741 302.134H263.227C266.954 302.134 269.974 305.208 269.974 309V350.2C269.974 353.992 266.953 357.066 263.227 357.066Z" fill="#FD5E95"/>
<path id="Vector_17" d="M263.227 343.334H229.488V309C229.488 305.208 232.51 302.134 236.236 302.134H222.74C219.013 302.134 215.992 305.208 215.992 309V336.466V350.2C215.992 353.992 219.014 357.066 222.74 357.066H236.236H263.226C266.953 357.066 269.973 353.992 269.973 350.2V336.466C269.974 340.259 266.953 343.334 263.227 343.334Z" fill="#D14D7B"/>
<path id="Vector_18" d="M209.245 357.066H168.759C165.032 357.066 162.012 353.992 162.012 350.2V309C162.012 305.208 165.033 302.134 168.759 302.134H209.245C212.972 302.134 215.992 305.208 215.992 309V350.2C215.992 353.992 212.972 357.066 209.245 357.066Z" fill="#FD5E95"/>
<path id="Vector_19" d="M209.245 343.334H175.506V309C175.506 305.208 178.528 302.134 182.254 302.134H168.759C165.032 302.134 162.012 305.208 162.012 309V336.466V350.2C162.012 353.992 165.033 357.066 168.759 357.066H182.255H209.245C212.972 357.066 215.992 353.992 215.992 350.2V336.466C215.992 340.259 212.972 343.334 209.245 343.334Z" fill="#D14D7B"/>
<path id="Vector_20" d="M317.208 412H276.722C272.995 412 269.974 408.925 269.974 405.134V363.934C269.974 360.141 272.996 357.067 276.722 357.067H317.208C320.935 357.067 323.955 360.142 323.955 363.934V405.134C323.956 408.925 320.935 412 317.208 412Z" fill="#FD5E95"/>
<path id="Vector_21" d="M317.208 398.266H283.469V363.933C283.469 360.14 286.491 357.066 290.217 357.066H276.721C272.994 357.066 269.973 360.141 269.973 363.933V391.4V405.134C269.973 408.926 272.995 412 276.721 412H290.217H317.208C320.935 412 323.955 408.925 323.955 405.134V391.4C323.956 395.192 320.935 398.266 317.208 398.266Z" fill="#D14D7B"/>
<path id="Vector_22" d="M290.217 109.866H249.731C246.004 109.866 242.984 106.792 242.984 103V61.8C242.984 58.0075 246.005 54.9336 249.731 54.9336H290.217C293.944 54.9336 296.965 58.0083 296.965 61.8V103C296.965 106.792 293.944 109.866 290.217 109.866Z" fill="#FD5E95"/>
<path id="Vector_23" d="M290.217 96.1336H256.479V61.8C256.479 58.0075 259.5 54.9336 263.226 54.9336H249.731C246.004 54.9336 242.984 58.0083 242.984 61.8V89.2664V103C242.984 106.792 246.005 109.866 249.731 109.866H263.227H290.217C293.944 109.866 296.965 106.792 296.965 103V89.2664C296.965 93.0589 293.944 96.1336 290.217 96.1336Z" fill="#D14D7B"/>
<path id="Vector_24" d="M290.217 54.9338H249.731C246.004 54.9338 242.984 51.8591 242.984 48.0674V6.86741C242.984 3.07491 246.005 0.00100708 249.731 0.00100708H290.217C293.944 0.00100708 296.965 3.07572 296.965 6.86741V48.0674C296.965 51.8591 293.944 54.9338 290.217 54.9338Z" fill="#FD5E95"/>
<path id="Vector_25" d="M290.217 41.2H256.479V6.8664C256.479 3.07391 259.5 0 263.226 0H249.731C246.004 0 242.984 3.07471 242.984 6.8664V34.3328V48.0664C242.984 51.8589 246.005 54.9328 249.731 54.9328H263.227H290.217C293.944 54.9328 296.965 51.8581 296.965 48.0664V34.3336C296.965 38.1253 293.944 41.2 290.217 41.2Z" fill="#D14D7B"/>
<path id="Vector_26" d="M236.236 54.9336H195.749C192.023 54.9336 189.002 51.8589 189.002 48.0672V6.8672C189.002 3.07471 192.023 0 195.749 0H236.236C239.962 0 242.983 3.07471 242.983 6.8664V48.0664C242.984 51.8589 239.962 54.9336 236.236 54.9336Z" fill="#FD5E95"/>
<path id="Vector_27" d="M236.236 41.2H202.497V6.8664C202.497 3.07391 205.518 0 209.244 0H195.749C192.023 0 189.002 3.07471 189.002 6.8664V34.3328V48.0664C189.002 51.8589 192.023 54.9328 195.749 54.9328H209.245H236.236C239.962 54.9328 242.983 51.8581 242.983 48.0664V34.3336C242.984 38.1253 239.962 41.2 236.236 41.2Z" fill="#D14D7B"/>
<path id="Vector_28" d="M344.199 109.866H303.713C299.986 109.866 296.966 106.792 296.966 103V61.8C296.966 58.0075 299.987 54.9336 303.713 54.9336H344.199C347.926 54.9336 350.946 58.0083 350.946 61.8V103C350.946 106.792 347.925 109.866 344.199 109.866Z" fill="#FD5E95"/>
<path id="Vector_29" d="M344.199 96.1336H310.46V61.8C310.46 58.0075 313.482 54.9336 317.208 54.9336H303.712C299.985 54.9336 296.965 58.0083 296.965 61.8V89.2664V103C296.965 106.792 299.986 109.866 303.712 109.866H317.208H344.198C347.925 109.866 350.946 106.792 350.946 103V89.2664C350.947 93.0589 347.925 96.1336 344.199 96.1336Z" fill="#D14D7B"/>
<path id="Vector_30" d="M371.19 412H330.703C326.977 412 323.956 408.925 323.956 405.134V363.934C323.956 360.141 326.977 357.067 330.703 357.067H371.19C374.916 357.067 377.937 360.142 377.937 363.934V405.134C377.937 408.925 374.916 412 371.19 412Z" fill="#7DBB34"/>
<path id="Vector_31" d="M371.19 398.266H337.451V363.933C337.451 360.14 340.472 357.066 344.198 357.066H330.703C326.977 357.066 323.956 360.141 323.956 363.933V391.4V405.134C323.956 408.926 326.977 412 330.703 412H344.199H371.19C374.916 412 377.937 408.925 377.937 405.134V391.4C377.937 395.192 374.916 398.266 371.19 398.266Z" fill="#60A333"/>
<path id="Vector_32" d="M371.19 357.066H330.703C326.977 357.066 323.956 353.992 323.956 350.2V309C323.956 305.208 326.977 302.134 330.703 302.134H371.19C374.916 302.134 377.937 305.208 377.937 309V350.2C377.937 353.992 374.916 357.066 371.19 357.066Z" fill="#7DBB34"/>
<path id="Vector_33" d="M371.19 343.334H337.451V309C337.451 305.208 340.472 302.134 344.198 302.134H330.703C326.977 302.134 323.956 305.208 323.956 309V336.466V350.2C323.956 353.992 326.977 357.066 330.703 357.066H344.199H371.19C374.916 357.066 377.937 353.992 377.937 350.2V336.466C377.937 340.259 374.916 343.334 371.19 343.334Z" fill="#60A333"/>
<path id="Vector_34" d="M317.208 357.066H276.722C272.995 357.066 269.974 353.992 269.974 350.2V309C269.974 305.208 272.996 302.134 276.722 302.134H317.208C320.935 302.134 323.955 305.208 323.955 309V350.2C323.956 353.992 320.935 357.066 317.208 357.066Z" fill="#7DBB34"/>
<path id="Vector_35" d="M317.208 343.334H283.469V309C283.469 305.208 286.491 302.134 290.217 302.134H276.721C272.994 302.134 269.973 305.208 269.973 309V336.466V350.2C269.973 353.992 272.995 357.066 276.721 357.066H290.217H317.208C320.935 357.066 323.955 353.992 323.955 350.2V336.466C323.956 340.259 320.935 343.334 317.208 343.334Z" fill="#60A333"/>
<path id="Vector_36" d="M317.208 302.134H276.722C272.995 302.134 269.974 299.059 269.974 295.267V254.067C269.974 250.275 272.996 247.201 276.722 247.201H317.208C320.935 247.201 323.955 250.276 323.955 254.067V295.267C323.956 299.059 320.935 302.134 317.208 302.134Z" fill="#7DBB34"/>
<path id="Vector_37" d="M317.208 288.4H283.469V254.066C283.469 250.274 286.491 247.2 290.217 247.2H276.721C272.994 247.2 269.973 250.275 269.973 254.066V281.533V295.266C269.973 299.059 272.995 302.133 276.721 302.133H290.217H317.208C320.935 302.133 323.955 299.058 323.955 295.266V281.533C323.956 285.325 320.935 288.4 317.208 288.4Z" fill="#60A333"/>
<path id="Vector_38" d="M47.3006 302.134H6.81443C3.08765 302.134 0.0670013 299.059 0.0670013 295.267V254.067C0.0670013 250.275 3.08844 247.201 6.81443 247.201H47.3006C51.0273 247.201 54.048 250.276 54.048 254.067V295.267C54.048 299.059 51.0273 302.134 47.3006 302.134Z" fill="#F9D84E"/>
<path id="Vector_39" d="M47.3006 288.4H13.5618V254.066C13.5618 250.274 16.5833 247.2 20.3093 247.2H6.81443C3.08765 247.2 0.0670013 250.275 0.0670013 254.066V281.533V295.266C0.0670013 299.059 3.08844 302.133 6.81443 302.133H20.3101H47.3006C51.0273 302.133 54.048 299.058 54.048 295.266V281.533C54.048 285.325 51.0273 288.4 47.3006 288.4Z" fill="#FFC20D"/>
<path id="Vector_40" d="M47.3006 357.066H6.81443C3.08765 357.066 0.0670013 353.992 0.0670013 350.2V309C0.0670013 305.208 3.08844 302.134 6.81443 302.134H47.3006C51.0273 302.134 54.048 305.208 54.048 309V350.2C54.048 353.992 51.0273 357.066 47.3006 357.066Z" fill="#F9D84E"/>
<path id="Vector_41" d="M47.3006 343.334H13.5618V309C13.5618 305.208 16.5833 302.134 20.3093 302.134H6.81443C3.08765 302.134 0.0670013 305.208 0.0670013 309V336.466V350.2C0.0670013 353.992 3.08844 357.066 6.81443 357.066H20.3101H47.3006C51.0273 357.066 54.048 353.992 54.048 350.2V336.466C54.048 340.259 51.0273 343.334 47.3006 343.334Z" fill="#FFC20D"/>
<path id="Vector_42" d="M101.282 357.066H60.7962C57.0694 357.066 54.0488 353.992 54.0488 350.2V309C54.0488 305.208 57.0702 302.134 60.7962 302.134H101.282C105.009 302.134 108.03 305.208 108.03 309V350.2C108.03 353.992 105.008 357.066 101.282 357.066Z" fill="#F9D84E"/>
<path id="Vector_43" d="M101.282 343.334H67.5436V309C67.5436 305.208 70.5651 302.134 74.291 302.134H60.7962C57.0694 302.134 54.0488 305.208 54.0488 309V336.466V350.2C54.0488 353.992 57.0702 357.066 60.7962 357.066H74.2918H101.282C105.009 357.066 108.03 353.992 108.03 350.2V336.466C108.03 340.259 105.008 343.334 101.282 343.334Z" fill="#FFC20D"/>
<path id="Vector_44" d="M101.282 302.134H60.7962C57.0694 302.134 54.0488 299.059 54.0488 295.267V254.067C54.0488 250.275 57.0702 247.201 60.7962 247.201H101.282C105.009 247.201 108.03 250.276 108.03 254.067V295.267C108.03 299.059 105.008 302.134 101.282 302.134Z" fill="#F9D84E"/>
<path id="Vector_45" d="M101.282 288.4H67.5436V254.066C67.5436 250.274 70.5651 247.2 74.291 247.2H60.7962C57.0694 247.2 54.0488 250.275 54.0488 254.066V281.533V295.266C54.0488 299.059 57.0702 302.133 60.7962 302.133H74.2918H101.282C105.009 302.133 108.03 299.058 108.03 295.266V281.533C108.03 285.325 105.008 288.4 101.282 288.4Z" fill="#FFC20D"/>
<path id="Vector_46" d="M162.012 212.866H121.525C117.799 212.866 114.778 209.792 114.778 206V164.8C114.778 161.008 117.799 157.934 121.525 157.934H162.012C165.738 157.934 168.759 161.008 168.759 164.8V206C168.759 209.792 165.737 212.866 162.012 212.866Z" fill="#45CAE0"/>
<path id="Vector_47" d="M162.012 199.134H128.273V164.8C128.273 161.008 131.294 157.934 135.02 157.934H121.525C117.798 157.934 114.777 161.008 114.777 164.8V192.266V206C114.777 209.792 117.799 212.866 121.525 212.866H135.02H162.011C165.737 212.866 168.758 209.792 168.758 206V192.266C168.759 196.059 165.737 199.134 162.012 199.134Z" fill="#0AADBF"/>
<path id="Vector_48" d="M215.992 212.866H175.506C171.78 212.866 168.759 209.792 168.759 206V164.8C168.759 161.008 171.78 157.934 175.506 157.934H215.992C219.719 157.934 222.74 161.008 222.74 164.8V206C222.741 209.792 219.719 212.866 215.992 212.866Z" fill="#45CAE0"/>
<path id="Vector_49" d="M215.992 199.134H182.254V164.8C182.254 161.008 185.275 157.934 189.001 157.934H175.506C171.779 157.934 168.758 161.008 168.758 164.8V192.266V206C168.758 209.792 171.78 212.866 175.506 212.866H189.002H215.992C219.719 212.866 222.74 209.792 222.74 206V192.266C222.741 196.059 219.719 199.134 215.992 199.134Z" fill="#0AADBF"/>
<path id="Vector_50" d="M162.012 157.934H121.525C117.799 157.934 114.778 154.859 114.778 151.067V109.867C114.778 106.075 117.799 103.001 121.525 103.001H162.012C165.738 103.001 168.759 106.076 168.759 109.867V151.067C168.759 154.859 165.737 157.934 162.012 157.934Z" fill="#45CAE0"/>
<path id="Vector_51" d="M162.012 144.2H128.273V109.866C128.273 106.074 131.294 103 135.02 103H121.525C117.798 103 114.777 106.075 114.777 109.866V137.333V151.066C114.777 154.859 117.799 157.933 121.525 157.933H135.02H162.011C165.737 157.933 168.758 154.858 168.758 151.066V137.333C168.759 141.125 165.737 144.2 162.012 144.2Z" fill="#0AADBF"/>
<path id="Vector_52" d="M162.012 267.8H121.525C117.799 267.8 114.778 264.725 114.778 260.934V219.734C114.778 215.941 117.799 212.867 121.525 212.867H162.012C165.738 212.867 168.759 215.942 168.759 219.734V260.934C168.759 264.725 165.737 267.8 162.012 267.8Z" fill="#45CAE0"/>
<path id="Vector_53" d="M162.012 254.066H128.273V219.733C128.273 215.94 131.294 212.866 135.02 212.866H121.525C117.798 212.866 114.777 215.941 114.777 219.733V247.2V260.934C114.777 264.726 117.799 267.8 121.525 267.8H135.02H162.011C165.737 267.8 168.758 264.725 168.758 260.934V247.2C168.759 250.993 165.737 254.066 162.012 254.066Z" fill="#0AADBF"/>
</g>
</svg>
