<svg width="358" height="402" viewBox="0 0 358 402" fill="none" xmlns="http://www.w3.org/2000/svg">
<g id="main_tetris">
<path id="Vector" d="M70.3655 276.685H31.9181V316.994H70.3655V276.685Z" fill="#FFC20D"/>
<path id="Vector_2" d="M70.3655 329.448H31.9181V369.757H70.3655V329.448Z" fill="#B169BF"/>
<path id="Vector_3" d="M230.127 329.448H191.679V369.757H230.127V329.448Z" fill="#D14D7B"/>
<g id="Group">
<path id="Vector_4" d="M278.056 329.448H239.608V369.757H278.056V329.448Z" fill="#60A333"/>
<path id="Vector_5" d="M333.973 329.448H295.526V369.757H333.973V329.448Z" fill="#60A333"/>
</g>
<path id="Vector_6" d="M44.8006 402H6.4573C2.92777 402 0.0670013 399 0.0670013 395.3V355.1C0.0670013 351.4 2.92852 348.401 6.4573 348.401H44.8006C48.3301 348.401 51.1909 351.401 51.1909 355.1V395.3C51.1909 399 48.3301 402 44.8006 402Z" fill="#B169BF"/>
<path id="Vector_7" d="M44.8006 388.6H12.8476V355.099C12.8476 351.399 15.7091 348.4 19.2379 348.4H6.4573C2.92777 348.4 0.0670013 351.4 0.0670013 355.099V381.9V395.3C0.0670013 399.001 2.92852 402 6.4573 402H19.2386H44.8006C48.3301 402 51.1909 399 51.1909 395.3V381.9C51.1909 385.6 48.3301 388.6 44.8006 388.6Z" fill="#844A8F"/>
<path id="Vector_8" d="M95.9252 402H57.5819C54.0524 402 51.1916 399 51.1916 395.3V355.1C51.1916 351.4 54.0531 348.401 57.5819 348.401H95.9252C99.4547 348.401 102.315 351.401 102.315 355.1V395.3C102.315 399 99.4539 402 95.9252 402Z" fill="#B169BF"/>
<path id="Vector_9" d="M95.9252 388.6H63.9722V355.099C63.9722 351.399 66.8337 348.4 70.3625 348.4H57.5819C54.0524 348.4 51.1916 351.4 51.1916 355.099V381.9V395.3C51.1916 399.001 54.0531 402 57.5819 402H70.3632H95.9252C99.4547 402 102.315 399 102.315 395.3V381.9C102.315 385.6 99.4539 388.6 95.9252 388.6Z" fill="#844A8F"/>
<path id="Vector_10" d="M147.049 402H108.706C105.176 402 102.315 399 102.315 395.3V355.1C102.315 351.4 105.177 348.401 108.706 348.401H147.049C150.579 348.401 153.439 351.401 153.439 355.1V395.3C153.44 399 150.579 402 147.049 402Z" fill="#B169BF"/>
<path id="Vector_11" d="M147.049 388.6H115.096V355.099C115.096 351.399 117.958 348.4 121.486 348.4H108.705C105.175 348.4 102.315 351.4 102.315 355.099V381.9V395.3C102.315 399.001 105.176 402 108.705 402H121.487H147.049C150.579 402 153.439 399 153.439 395.3V381.9C153.44 385.6 150.579 388.6 147.049 388.6Z" fill="#844A8F"/>
<path id="Vector_12" d="M198.174 402H159.83C156.301 402 153.44 399 153.44 395.3V355.1C153.44 351.4 156.302 348.401 159.83 348.401H198.174C201.703 348.401 204.564 351.401 204.564 355.1V395.3C204.564 399 201.703 402 198.174 402Z" fill="#B169BF"/>
<path id="Vector_13" d="M198.174 388.6H166.221V355.099C166.221 351.399 169.082 348.4 172.611 348.4H159.83C156.301 348.4 153.44 351.4 153.44 355.099V381.9V395.3C153.44 399.001 156.302 402 159.83 402H172.612H198.174C201.703 402 204.564 399 204.564 395.3V381.9C204.564 385.6 201.703 388.6 198.174 388.6Z" fill="#844A8F"/>
<path id="Vector_14" d="M249.298 402H210.955C207.425 402 204.565 399 204.565 395.3V355.1C204.565 351.4 207.426 348.401 210.955 348.401H249.298C252.828 348.401 255.689 351.401 255.689 355.1V395.3C255.689 399 252.827 402 249.298 402Z" fill="#FD5E95"/>
<path id="Vector_15" d="M249.298 388.6H217.345V355.099C217.345 351.399 220.207 348.4 223.736 348.4H210.954C207.425 348.4 204.564 351.4 204.564 355.099V381.9V395.3C204.564 399.001 207.425 402 210.954 402H223.736H249.297C252.827 402 255.688 399 255.688 395.3V381.9C255.689 385.6 252.827 388.6 249.298 388.6Z" fill="#D14D7B"/>
<path id="Vector_16" d="M249.298 348.4H210.955C207.425 348.4 204.565 345.4 204.565 341.7V301.5C204.565 297.8 207.426 294.8 210.955 294.8H249.298C252.828 294.8 255.689 297.8 255.689 301.5V341.7C255.689 345.4 252.827 348.4 249.298 348.4Z" fill="#FD5E95"/>
<path id="Vector_17" d="M249.298 335H217.345V301.5C217.345 297.8 220.207 294.8 223.736 294.8H210.954C207.425 294.8 204.564 297.8 204.564 301.5V328.3V341.7C204.564 345.4 207.425 348.4 210.954 348.4H223.736H249.297C252.827 348.4 255.688 345.4 255.688 341.7V328.3C255.689 332 252.827 335 249.298 335Z" fill="#D14D7B"/>
<path id="Vector_18" d="M198.174 348.4H159.83C156.301 348.4 153.44 345.4 153.44 341.7V301.5C153.44 297.8 156.302 294.8 159.83 294.8H198.174C201.703 294.8 204.564 297.8 204.564 301.5V341.7C204.564 345.4 201.703 348.4 198.174 348.4Z" fill="#FD5E95"/>
<path id="Vector_19" d="M198.174 335H166.221V301.5C166.221 297.8 169.082 294.8 172.611 294.8H159.83C156.301 294.8 153.44 297.8 153.44 301.5V328.3V341.7C153.44 345.4 156.302 348.4 159.83 348.4H172.612H198.174C201.703 348.4 204.564 345.4 204.564 341.7V328.3C204.564 332 201.703 335 198.174 335Z" fill="#D14D7B"/>
<path id="Vector_20" d="M300.422 402H262.079C258.549 402 255.689 399 255.689 395.3V355.1C255.689 351.4 258.55 348.401 262.079 348.401H300.422C303.952 348.401 306.812 351.401 306.812 355.1V395.3C306.813 399 303.952 402 300.422 402Z" fill="#FD5E95"/>
<path id="Vector_21" d="M300.422 388.6H268.469V355.099C268.469 351.399 271.331 348.4 274.859 348.4H262.078C258.549 348.4 255.688 351.4 255.688 355.099V381.9V395.3C255.688 399.001 258.549 402 262.078 402H274.86H300.422C303.952 402 306.812 399 306.812 395.3V381.9C306.813 385.6 303.952 388.6 300.422 388.6Z" fill="#D14D7B"/>
<path id="Vector_22" d="M274.86 107.2H236.517C232.987 107.2 230.127 104.2 230.127 100.5V60.3C230.127 56.5996 232.988 53.6003 236.517 53.6003H274.86C278.39 53.6003 281.25 56.6003 281.25 60.3V100.5C281.25 104.2 278.39 107.2 274.86 107.2Z" fill="#FD5E95"/>
<path id="Vector_23" d="M274.86 93.8003H242.907V60.3C242.907 56.5996 245.769 53.6003 249.298 53.6003H236.517C232.987 53.6003 230.127 56.6003 230.127 60.3V87.0997V100.5C230.127 104.2 232.988 107.2 236.517 107.2H249.298H274.86C278.39 107.2 281.25 104.2 281.25 100.5V87.0997C281.25 90.8002 278.39 93.8003 274.86 93.8003Z" fill="#D14D7B"/>
<path id="Vector_24" d="M274.86 53.6005H236.517C232.987 53.6005 230.127 50.6004 230.127 46.9007V6.70075C230.127 3.0003 232.988 0.00100708 236.517 0.00100708H274.86C278.39 0.00100708 281.25 3.00109 281.25 6.70075V46.9007C281.25 50.6004 278.39 53.6005 274.86 53.6005Z" fill="#FD5E95"/>
<path id="Vector_25" d="M274.86 40.2H242.907V6.69974C242.907 2.9993 245.769 0 249.298 0H236.517C232.987 0 230.127 3.00008 230.127 6.69974V33.4995V46.8997C230.127 50.6002 232.988 53.5995 236.517 53.5995H249.298H274.86C278.39 53.5995 281.25 50.5994 281.25 46.8997V33.5003C281.25 37.1999 278.39 40.2 274.86 40.2Z" fill="#D14D7B"/>
<path id="Vector_26" d="M223.736 53.6003H185.392C181.863 53.6003 179.002 50.6002 179.002 46.9005V6.70052C179.002 3.00008 181.863 0 185.392 0H223.736C227.265 0 230.126 3.00008 230.126 6.69974V46.8997C230.127 50.6002 227.265 53.6003 223.736 53.6003Z" fill="#FD5E95"/>
<path id="Vector_27" d="M223.736 40.2H191.783V6.69974C191.783 2.9993 194.644 0 198.173 0H185.392C181.864 0 179.002 3.00008 179.002 6.69974V33.4995V46.8997C179.002 50.6002 181.863 53.5995 185.392 53.5995H198.174H223.736C227.265 53.5995 230.126 50.5994 230.126 46.8997V33.5003C230.127 37.1999 227.265 40.2 223.736 40.2Z" fill="#D14D7B"/>
<path id="Vector_28" d="M325.985 107.2H287.642C284.112 107.2 281.251 104.2 281.251 100.5V60.3C281.251 56.5996 284.113 53.6003 287.642 53.6003H325.985C329.514 53.6003 332.375 56.6003 332.375 60.3V100.5C332.375 104.2 329.514 107.2 325.985 107.2Z" fill="#FD5E95"/>
<path id="Vector_29" d="M325.985 93.8003H294.032V60.3C294.032 56.5996 296.893 53.6003 300.422 53.6003H287.641C284.111 53.6003 281.25 56.6003 281.25 60.3V87.0997V100.5C281.25 104.2 284.112 107.2 287.641 107.2H300.422H325.984C329.514 107.2 332.374 104.2 332.374 100.5V87.0997C332.375 90.8002 329.514 93.8003 325.985 93.8003Z" fill="#D14D7B"/>
<path id="Vector_30" d="M351.547 402H313.203C309.674 402 306.813 399 306.813 395.3V355.1C306.813 351.4 309.675 348.401 313.203 348.401H351.547C355.076 348.401 357.937 351.401 357.937 355.1V395.3C357.937 399 355.076 402 351.547 402Z" fill="#7DBB34"/>
<path id="Vector_31" d="M351.547 388.6H319.594V355.099C319.594 351.399 322.455 348.4 325.984 348.4H313.203C309.674 348.4 306.813 351.4 306.813 355.099V381.9V395.3C306.813 399.001 309.675 402 313.203 402H325.985H351.547C355.076 402 357.937 399 357.937 395.3V381.9C357.937 385.6 355.076 388.6 351.547 388.6Z" fill="#60A333"/>
<path id="Vector_32" d="M351.547 348.4H313.203C309.674 348.4 306.813 345.4 306.813 341.7V301.5C306.813 297.8 309.675 294.8 313.203 294.8H351.547C355.076 294.8 357.937 297.8 357.937 301.5V341.7C357.937 345.4 355.076 348.4 351.547 348.4Z" fill="#7DBB34"/>
<path id="Vector_33" d="M351.547 335H319.594V301.5C319.594 297.8 322.455 294.8 325.984 294.8H313.203C309.674 294.8 306.813 297.8 306.813 301.5V328.3V341.7C306.813 345.4 309.675 348.4 313.203 348.4H325.985H351.547C355.076 348.4 357.937 345.4 357.937 341.7V328.3C357.937 332 355.076 335 351.547 335Z" fill="#60A333"/>
<path id="Vector_34" d="M300.422 348.4H262.079C258.549 348.4 255.689 345.4 255.689 341.7V301.5C255.689 297.8 258.55 294.8 262.079 294.8H300.422C303.952 294.8 306.812 297.8 306.812 301.5V341.7C306.813 345.4 303.952 348.4 300.422 348.4Z" fill="#7DBB34"/>
<path id="Vector_35" d="M300.422 335H268.469V301.5C268.469 297.8 271.331 294.8 274.859 294.8H262.078C258.549 294.8 255.688 297.8 255.688 301.5V328.3V341.7C255.688 345.4 258.549 348.4 262.078 348.4H274.86H300.422C303.952 348.4 306.812 345.4 306.812 341.7V328.3C306.813 332 303.952 335 300.422 335Z" fill="#60A333"/>
<path id="Vector_36" d="M300.422 294.8H262.079C258.549 294.8 255.689 291.8 255.689 288.101V247.901C255.689 244.2 258.55 241.201 262.079 241.201H300.422C303.952 241.201 306.812 244.201 306.812 247.901V288.101C306.813 291.8 303.952 294.8 300.422 294.8Z" fill="#7DBB34"/>
<path id="Vector_37" d="M300.422 281.4H268.469V247.9C268.469 244.199 271.331 241.2 274.859 241.2H262.078C258.549 241.2 255.688 244.2 255.688 247.9V274.699V288.1C255.688 291.8 258.549 294.799 262.078 294.799H274.86H300.422C303.952 294.799 306.812 291.799 306.812 288.1V274.699C306.813 278.4 303.952 281.4 300.422 281.4Z" fill="#60A333"/>
<path id="Vector_38" d="M44.8006 294.8H6.4573C2.92777 294.8 0.0670013 291.8 0.0670013 288.101V247.901C0.0670013 244.2 2.92852 241.201 6.4573 241.201H44.8006C48.3301 241.201 51.1909 244.201 51.1909 247.901V288.101C51.1909 291.8 48.3301 294.8 44.8006 294.8Z" fill="#F9D84E"/>
<path id="Vector_39" d="M44.8006 281.4H12.8476V247.9C12.8476 244.199 15.7091 241.2 19.2379 241.2H6.4573C2.92777 241.2 0.0670013 244.2 0.0670013 247.9V274.699V288.1C0.0670013 291.8 2.92852 294.799 6.4573 294.799H19.2386H44.8006C48.3301 294.799 51.1909 291.799 51.1909 288.1V274.699C51.1909 278.4 48.3301 281.4 44.8006 281.4Z" fill="#FFC20D"/>
<path id="Vector_40" d="M44.8006 348.4H6.4573C2.92777 348.4 0.0670013 345.4 0.0670013 341.7V301.5C0.0670013 297.8 2.92852 294.8 6.4573 294.8H44.8006C48.3301 294.8 51.1909 297.8 51.1909 301.5V341.7C51.1909 345.4 48.3301 348.4 44.8006 348.4Z" fill="#F9D84E"/>
<path id="Vector_41" d="M44.8006 335H12.8476V301.5C12.8476 297.8 15.7091 294.8 19.2379 294.8H6.4573C2.92777 294.8 0.0670013 297.8 0.0670013 301.5V328.3V341.7C0.0670013 345.4 2.92852 348.4 6.4573 348.4H19.2386H44.8006C48.3301 348.4 51.1909 345.4 51.1909 341.7V328.3C51.1909 332 48.3301 335 44.8006 335Z" fill="#FFC20D"/>
<path id="Vector_42" d="M95.9252 348.4H57.5819C54.0524 348.4 51.1916 345.4 51.1916 341.7V301.5C51.1916 297.8 54.0531 294.8 57.5819 294.8H95.9252C99.4547 294.8 102.315 297.8 102.315 301.5V341.7C102.315 345.4 99.4539 348.4 95.9252 348.4Z" fill="#F9D84E"/>
<path id="Vector_43" d="M95.9252 335H63.9722V301.5C63.9722 297.8 66.8337 294.8 70.3625 294.8H57.5819C54.0524 294.8 51.1916 297.8 51.1916 301.5V328.3V341.7C51.1916 345.4 54.0531 348.4 57.5819 348.4H70.3632H95.9252C99.4547 348.4 102.315 345.4 102.315 341.7V328.3C102.315 332 99.4539 335 95.9252 335Z" fill="#FFC20D"/>
<path id="Vector_44" d="M95.9252 294.8H57.5819C54.0524 294.8 51.1916 291.8 51.1916 288.101V247.901C51.1916 244.2 54.0531 241.201 57.5819 241.201H95.9252C99.4547 241.201 102.315 244.201 102.315 247.901V288.101C102.315 291.8 99.4539 294.8 95.9252 294.8Z" fill="#F9D84E"/>
<path id="Vector_45" d="M95.9252 281.4H63.9722V247.9C63.9722 244.199 66.8337 241.2 70.3625 241.2H57.5819C54.0524 241.2 51.1916 244.2 51.1916 247.9V274.699V288.1C51.1916 291.8 54.0531 294.799 57.5819 294.799H70.3632H95.9252C99.4547 294.799 102.315 291.799 102.315 288.1V274.699C102.315 278.4 99.4539 281.4 95.9252 281.4Z" fill="#FFC20D"/>
<path id="Vector_46" d="M153.44 207.7H115.097C111.567 207.7 108.707 204.7 108.707 201V160.8C108.707 157.1 111.568 154.1 115.097 154.1H153.44C156.97 154.1 159.83 157.1 159.83 160.8V201C159.83 204.7 156.969 207.7 153.44 207.7Z" fill="#45CAE0"/>
<path id="Vector_47" d="M153.44 194.3H121.487V160.8C121.487 157.1 124.349 154.1 127.877 154.1H115.096C111.567 154.1 108.706 157.1 108.706 160.8V187.6V201C108.706 204.7 111.567 207.7 115.096 207.7H127.877H153.439C156.969 207.7 159.83 204.7 159.83 201V187.6C159.83 191.3 156.969 194.3 153.44 194.3Z" fill="#0AADBF"/>
<path id="Vector_48" d="M204.564 207.7H166.221C162.691 207.7 159.83 204.7 159.83 201V160.8C159.83 157.1 162.692 154.1 166.221 154.1H204.564C208.093 154.1 210.954 157.1 210.954 160.8V201C210.955 204.7 208.093 207.7 204.564 207.7Z" fill="#45CAE0"/>
<path id="Vector_49" d="M204.564 194.3H172.611V160.8C172.611 157.1 175.472 154.1 179.001 154.1H166.22C162.69 154.1 159.83 157.1 159.83 160.8V187.6V201C159.83 204.7 162.691 207.7 166.22 207.7H179.002H204.564C208.093 207.7 210.954 204.7 210.954 201V187.6C210.955 191.3 208.093 194.3 204.564 194.3Z" fill="#0AADBF"/>
<path id="Vector_50" d="M153.44 154.1H115.097C111.567 154.1 108.707 151.1 108.707 147.401V107.201C108.707 103.5 111.568 100.501 115.097 100.501H153.44C156.97 100.501 159.83 103.501 159.83 107.201V147.401C159.83 151.1 156.969 154.1 153.44 154.1Z" fill="#45CAE0"/>
<path id="Vector_51" d="M153.44 140.7H121.487V107.2C121.487 103.499 124.349 100.5 127.877 100.5H115.096C111.567 100.5 108.706 103.5 108.706 107.2V133.999V147.4C108.706 151.1 111.567 154.099 115.096 154.099H127.877H153.439C156.969 154.099 159.83 151.099 159.83 147.4V133.999C159.83 137.7 156.969 140.7 153.44 140.7Z" fill="#0AADBF"/>
<path id="Vector_52" d="M153.44 261.3H115.097C111.567 261.3 108.707 258.3 108.707 254.6V214.4C108.707 210.7 111.568 207.701 115.097 207.701H153.44C156.97 207.701 159.83 210.701 159.83 214.4V254.6C159.83 258.3 156.969 261.3 153.44 261.3Z" fill="#45CAE0"/>
<path id="Vector_53" d="M153.44 247.9H121.487V214.399C121.487 210.699 124.349 207.7 127.877 207.7H115.096C111.567 207.7 108.706 210.7 108.706 214.399V241.2V254.6C108.706 258.301 111.567 261.3 115.096 261.3H127.877H153.439C156.969 261.3 159.83 258.3 159.83 254.6V241.2C159.83 244.9 156.969 247.9 153.44 247.9Z" fill="#0AADBF"/>
</g>
</svg>
